<svg id="Capa_1" enable-background="new 0 0 512 512" height="512" viewBox="0 0 512 512" width="512" xmlns="http://www.w3.org/2000/svg"><g><path d="m341 512h115c8.284 0 15-6.716 15-15v-25.827l-5.941-52.674c-5.164-15.389-13.5-29.335-24.228-41.058l-65.553-35.815c-6.27-1.064-12.709-1.626-19.278-1.626h-52.5v-24.466c0-8.284-6.716-15-15-15h-65c-8.284 0-15 6.716-15 15v24.466h-52.5c-6.569 0-13.008.562-19.279 1.625l-65.553 35.815c-10.728 11.724-19.063 25.669-24.228 41.058l-5.94 52.675v25.827c0 8.284 6.716 15 15 15h115l15-15 15 15h40l15-15 15 15h40l15-15z" fill="#a65d4e"/><path d="m471 497v-25.827l-5.941-52.674c-5.164-15.389-13.5-29.335-24.228-41.058l-65.553-35.815c-6.27-1.064-12.709-1.626-19.278-1.626h-52.5v-24.466c0-8.284-6.716-15-15-15h-32.5v196.466l15 15h40l15-15 15 15h115c8.284 0 15-6.716 15-15z" fill="#915041"/><path d="m311 497v15h30v-15c0-36.944 30.056-67 67-67 23.023 0 44.166 11.611 56.557 31.06l6.443 10.113v-16.173c0-12.754-2.09-25.028-5.941-36.501-16.308-11.881-36.145-18.499-57.059-18.499-53.486 0-97 43.514-97 97z" fill="#e2dff4"/><path d="m104 400c-20.914 0-40.751 6.618-57.059 18.499-3.851 11.473-5.941 23.747-5.941 36.501v16.173l6.443-10.113c12.391-19.449 33.534-31.06 56.557-31.06 36.944 0 67 30.056 67 67v15h30v-15c0-53.486-43.514-97-97-97z" fill="#f9f9f9"/><path d="m375.279 341.625c-33.338 4.795-64.1 20.117-88.318 44.336-12.944 12.943-23.347 27.756-30.96 43.831-7.614-16.075-18.017-30.888-30.96-43.831-24.218-24.219-54.98-39.54-88.318-44.336-25.759 4.366-48.631 17.323-65.553 35.815 13.387-4.811 27.806-7.44 42.83-7.44 70.028 0 127 56.972 127 127v15h30v-15c0-70.028 56.972-127 127-127 15.024 0 29.443 2.629 42.832 7.44-16.922-18.493-39.795-31.449-65.553-35.815z" fill="#f9f9f9"/><path d="m398 370c15.024 0 29.443 2.629 42.832 7.44-16.922-18.493-39.794-31.449-65.553-35.815-33.338 4.795-64.1 20.117-88.318 44.336-12.944 12.943-23.347 27.756-30.96 43.831v82.208h15v-15c-.001-70.028 56.971-127 126.999-127z" fill="#e2dff4"/><path d="m398.089 194.861h-284.178l-4.416-4.53c-11.927-12.236-18.495-28.334-18.495-45.331 0-18.317 7.674-35.52 20.929-47.728-.618-4.11-.929-8.212-.929-12.272 0-46.869 38.131-85 85-85 22.974 0 44.287 9.017 60 24.814 15.713-15.797 37.026-24.814 60-24.814 46.869 0 85 38.131 85 85 0 4.06-.311 8.162-.929 12.272 13.255 12.208 20.929 29.411 20.929 47.728 0 16.997-6.568 33.095-18.495 45.331z" fill="#08475e"/><path d="m398.089 194.861 4.416-4.53c11.927-12.236 18.495-28.334 18.495-45.331 0-18.317-7.674-35.52-20.929-47.728.618-4.11.929-8.212.929-12.272 0-46.869-38.131-85-85-85-22.974 0-44.287 9.017-60 24.814v170.047z" fill="#05303d"/><path d="m331 165v60c0 8.284 6.716 15 15 15h27.5c20.711 0 37.5-16.789 37.5-37.5 0-20.711-16.789-37.5-37.5-37.5z" fill="#915041"/><path d="m101 202.5c0 20.711 16.789 37.5 37.5 37.5h27.5c8.284 0 15-6.716 15-15v-60h-42.5c-20.711 0-37.5 16.789-37.5 37.5z" fill="#a65d4e"/><path d="m361 135c0-24.813-20.187-45-45-45h-120c-24.813 0-45 20.187-45 45v15l11 15-11 15v45c0 57.897 47.103 105 105 105s105-47.103 105-105v-45l-15-15 15-15z" fill="#b46e5a"/><path d="m316 90h-60v240c57.897 0 105-47.103 105-105v-45l-15-15 15-15v-15c0-24.813-20.187-45-45-45z" fill="#a65d4e"/><path d="m151 150h210v30h-210z" fill="#ff7037"/><path d="m256 150h105v30h-105z" fill="#ff4a4a"/></g></svg>